<?xml version="1.0" standalone="no"?>
<!DOCTYPE svg PUBLIC "-//W3C//DTD SVG 20010904//EN"
 "http://www.w3.org/TR/2001/REC-SVG-20010904/DTD/svg10.dtd">
<svg version="1.0" xmlns="http://www.w3.org/2000/svg"
 width="260.000000pt" height="260.000000pt" viewBox="0 0 260.000000 260.000000"
 preserveAspectRatio="xMidYMid meet">
<metadata>
Created by potrace 1.11, written by Peter Selinger 2001-2013
</metadata>
<g transform="translate(0.000000,260.000000) scale(0.100000,-0.100000)"
fill="#000000" stroke="none">
<path d="M1340 2002 c0 -4 -28 -14 -62 -21 -35 -7 -65 -16 -68 -19 -3 -4 -39
-16 -80 -26 -41 -10 -82 -23 -90 -27 -28 -16 -139 -49 -163 -49 -59 0 -86 -12
-101 -45 -19 -39 -21 -104 -5 -139 14 -29 50 -38 83 -21 14 7 40 16 58 20 18
4 36 12 39 17 3 5 22 11 42 15 l37 6 -1 -69 c0 -38 -4 -91 -10 -119 -5 -27
-14 -79 -19 -115 -35 -226 -85 -407 -155 -552 -102 -212 -220 -256 -345 -128
-67 69 -82 99 -91 182 -5 44 -12 84 -15 89 -8 13 -32 11 -69 -7 -63 -29 -73
-154 -21 -257 41 -80 162 -197 204 -197 7 0 12 -4 12 -8 0 -18 123 -34 173
-22 80 18 118 49 191 160 80 120 130 244 175 432 33 134 80 469 82 578 2 88 8
100 64 122 106 41 172 78 183 104 13 27 6 71 -14 91 -14 15 -34 17 -34 5z"/>
<path d="M2076 1879 c-14 -11 -26 -25 -26 -30 0 -12 -51 -122 -59 -129 -4 -3
-27 -36 -51 -75 -69 -107 -197 -273 -262 -342 -56 -57 -140 -114 -152 -102 -6
6 17 112 59 264 36 132 58 301 45 344 -15 53 -50 66 -88 34 -17 -15 -29 -59
-61 -238 -23 -121 -47 -254 -55 -295 -8 -41 -20 -104 -26 -140 -6 -36 -18 -94
-25 -130 -29 -134 -39 -217 -39 -326 -1 -93 2 -116 16 -130 14 -15 21 -15 47
-5 36 15 38 25 51 191 5 69 14 148 20 177 11 51 12 53 78 84 37 18 69 36 70
41 5 11 52 10 52 -1 0 -5 12 -12 28 -16 147 -36 260 -178 287 -364 18 -120 24
-139 46 -146 10 -4 19 -11 19 -16 0 -5 7 -9 15 -9 8 0 15 5 15 10 0 6 7 10 15
10 26 0 54 58 48 99 -6 47 -43 200 -53 220 -4 9 -20 43 -36 76 -31 66 -75 128
-114 161 -14 12 -36 31 -49 43 -13 11 -36 26 -52 33 -16 7 -29 16 -29 20 0 5
-7 8 -15 8 -21 0 -19 13 8 42 43 49 82 95 107 127 14 18 34 45 46 59 38 49
124 172 124 179 0 3 10 20 23 37 48 66 70 122 62 163 -8 45 -35 93 -51 93 -6
0 -23 -9 -38 -21z"/>
</g>
</svg>
